<?xml version="1.0" standalone="no"?>
<!DOCTYPE svg PUBLIC "-//W3C//DTD SVG 20010904//EN"
 "http://www.w3.org/TR/2001/REC-SVG-20010904/DTD/svg10.dtd">
<svg version="1.0" xmlns="http://www.w3.org/2000/svg"
 width="1748.000000pt" height="970.000000pt" viewBox="0 0 1748.000000 970.000000"
 preserveAspectRatio="xMidYMid meet">

<g transform="translate(0.000000,970.000000) scale(0.100000,-0.100000)"
fill="#000000" stroke="none">
<path d="M8315 8889 c-49 -4 -164 -12 -255 -18 -91 -5 -177 -14 -192 -20 -15
-5 -91 -15 -169 -21 -78 -6 -146 -13 -151 -16 -5 -3 -53 -10 -106 -14 -53 -5
-124 -16 -157 -24 -32 -9 -79 -16 -102 -16 -24 0 -60 -7 -80 -15 -19 -8 -56
-15 -82 -15 -25 -1 -71 -9 -101 -20 -30 -11 -71 -20 -90 -20 -19 0 -48 -7 -64
-15 -15 -8 -37 -15 -47 -15 -11 0 -45 -9 -76 -20 -32 -11 -74 -20 -94 -20 -20
0 -55 -6 -77 -14 -22 -8 -61 -18 -86 -21 -25 -4 -46 -11 -46 -15 0 -4 -24 -13
-52 -19 -71 -14 -180 -44 -253 -71 -33 -12 -78 -25 -100 -30 -43 -9 -122 -35
-170 -56 -16 -7 -46 -16 -65 -20 -19 -3 -44 -12 -55 -19 -11 -6 -49 -20 -85
-30 -36 -10 -77 -27 -92 -37 -14 -10 -38 -18 -53 -18 -15 0 -42 -8 -59 -18
-17 -10 -58 -27 -91 -37 -33 -11 -67 -24 -75 -31 -8 -6 -31 -15 -50 -19 -19
-4 -44 -14 -55 -21 -11 -8 -26 -14 -34 -14 -8 0 -22 -7 -31 -15 -10 -9 -35
-19 -56 -22 -22 -3 -44 -10 -50 -15 -23 -18 -110 -58 -125 -58 -9 0 -22 -7
-29 -15 -7 -8 -18 -15 -24 -15 -6 0 -42 -16 -81 -35 -38 -19 -75 -35 -81 -35
-6 0 -23 -9 -37 -20 -14 -11 -32 -20 -40 -20 -19 0 -43 -11 -282 -134 -77 -40
-149 -75 -160 -79 -27 -9 -126 -65 -146 -83 -8 -8 -23 -14 -32 -14 -10 0 -25
-9 -34 -20 -10 -11 -25 -20 -35 -20 -9 0 -20 -4 -23 -10 -3 -5 -36 -25 -73
-44 -97 -49 -183 -95 -213 -114 -15 -10 -55 -34 -90 -55 -85 -50 -95 -57 -151
-94 -26 -18 -54 -33 -62 -33 -8 0 -19 -6 -23 -12 -10 -16 -38 -35 -76 -51 -15
-6 -27 -15 -27 -19 0 -5 -10 -13 -22 -18 -13 -5 -41 -21 -63 -35 -22 -14 -50
-29 -62 -34 -12 -6 -30 -17 -40 -26 -23 -21 -133 -95 -203 -137 -30 -18 -93
-60 -140 -93 -125 -89 -167 -118 -204 -140 -19 -11 -61 -40 -94 -65 -33 -25
-102 -74 -153 -110 -50 -36 -111 -82 -134 -102 -23 -21 -45 -38 -48 -38 -8 0
-181 -128 -230 -170 -21 -18 -57 -45 -80 -60 -23 -15 -56 -41 -73 -56 -55 -51
-84 -74 -93 -74 -5 0 -11 -4 -13 -8 -3 -7 -144 -124 -242 -201 -48 -38 -190
-163 -204 -180 -40 -48 -110 -129 -132 -152 -31 -33 -47 -56 -61 -89 -5 -13
-14 -27 -18 -30 -12 -8 -91 -147 -91 -160 0 -7 -6 -24 -14 -38 -7 -15 -23 -62
-35 -104 -26 -95 -30 -320 -7 -390 8 -24 17 -63 20 -87 4 -24 13 -53 21 -64 8
-12 15 -32 15 -44 0 -13 15 -45 32 -71 18 -26 41 -63 51 -82 52 -102 233 -293
512 -540 61 -54 131 -117 156 -141 52 -50 131 -116 162 -138 12 -8 45 -36 72
-62 28 -26 64 -58 80 -70 17 -13 59 -48 95 -79 36 -31 88 -73 115 -93 28 -20
55 -40 60 -45 6 -4 64 -51 130 -102 66 -52 126 -100 133 -107 7 -7 17 -13 22
-13 5 0 17 -8 27 -18 26 -26 105 -88 123 -95 8 -4 46 -31 83 -61 38 -29 80
-59 95 -67 15 -7 45 -27 67 -44 22 -17 58 -42 80 -55 22 -13 42 -26 45 -29 10
-12 128 -91 135 -91 4 0 26 -16 49 -35 24 -19 46 -35 49 -35 6 0 210 -133 275
-179 23 -17 48 -31 56 -31 7 0 33 -15 57 -33 24 -19 69 -46 99 -60 30 -15 88
-47 128 -72 104 -64 157 -93 337 -185 88 -45 167 -88 176 -96 8 -8 23 -14 31
-14 9 0 21 -7 28 -15 7 -8 17 -15 23 -15 5 0 62 -25 126 -56 64 -31 136 -66
161 -77 25 -11 57 -26 72 -34 14 -7 31 -13 38 -13 6 0 23 -9 37 -20 14 -11 36
-20 48 -20 12 0 28 -7 35 -15 7 -8 20 -15 29 -15 10 0 26 -7 37 -15 10 -8 25
-15 33 -15 8 0 55 -18 105 -41 150 -67 154 -69 166 -69 7 0 24 -6 38 -14 58
-29 123 -56 138 -56 16 0 100 -32 147 -56 16 -8 38 -14 50 -14 12 -1 40 -9 62
-20 22 -11 48 -19 58 -20 11 0 31 -6 45 -14 35 -18 86 -35 147 -50 28 -7 59
-17 70 -23 11 -6 39 -14 62 -18 24 -4 45 -10 48 -15 3 -5 24 -11 48 -15 23 -4
54 -14 69 -21 15 -8 39 -14 54 -14 31 0 105 -20 119 -32 5 -4 20 -8 33 -8 13
0 33 -5 45 -12 12 -6 48 -14 82 -19 33 -4 80 -14 105 -22 76 -25 132 -38 195
-47 54 -7 137 -26 220 -50 17 -5 75 -14 130 -20 55 -6 123 -18 152 -26 28 -7
86 -14 128 -14 43 0 91 -6 108 -14 43 -18 287 -43 652 -66 335 -21 652 -24
855 -9 74 6 209 14 300 19 91 5 210 15 265 24 55 9 126 16 158 16 32 0 67 5
78 10 10 6 67 15 127 20 59 4 172 20 252 35 80 14 169 30 198 35 29 5 57 12
63 15 5 4 45 13 87 20 85 14 152 29 227 51 28 9 75 19 105 24 47 7 113 22 158
36 7 2 14 2 16 1 1 -1 10 4 18 10 8 7 41 17 74 22 73 12 150 34 189 55 17 9
44 16 60 16 17 0 37 6 43 12 7 7 36 18 65 24 28 6 77 21 107 34 30 12 71 26
90 32 98 28 170 53 170 60 0 5 10 8 23 8 12 0 39 9 60 20 20 11 47 20 59 20
13 0 55 16 93 35 39 19 80 35 91 35 12 0 27 7 34 15 7 8 20 15 29 15 9 1 34 9
56 20 22 11 47 19 55 20 12 0 137 56 202 91 10 5 23 9 30 9 13 0 30 8 429 204
141 69 262 126 268 126 6 0 11 4 11 9 0 5 10 13 23 17 12 3 58 28 103 55 44
26 91 53 105 59 24 10 32 15 106 62 22 14 50 29 61 32 11 4 26 13 32 21 7 8
18 15 25 15 14 0 100 53 147 89 14 12 33 21 41 21 8 0 20 6 26 14 7 8 31 24
54 36 23 12 51 30 62 39 11 9 37 26 59 37 21 10 40 25 43 32 3 6 14 12 25 12
11 0 38 15 61 33 23 17 51 38 62 45 11 7 40 25 64 40 58 36 175 124 179 134 2
4 11 8 19 8 8 0 32 14 53 30 21 17 41 30 44 30 3 0 42 28 87 63 44 34 98 74
121 88 22 15 43 30 47 35 3 5 29 25 56 44 28 19 51 38 53 42 2 4 10 8 18 8 7
0 19 9 26 20 7 11 16 20 21 20 7 0 38 24 205 162 31 26 62 47 69 47 6 1 13 4
15 9 3 8 59 57 134 117 27 22 69 58 94 80 25 23 70 59 100 82 30 23 82 69 115
102 33 34 63 61 68 61 4 0 15 8 25 18 10 9 70 64 133 122 156 144 309 290 332
318 11 13 37 40 59 60 21 19 38 43 38 54 0 10 4 18 8 18 27 0 135 210 173 338
26 87 29 109 29 249 0 129 -3 161 -20 205 -11 29 -20 62 -20 74 0 18 -24 69
-89 189 -18 32 -92 147 -101 155 -3 3 -32 37 -64 75 -91 109 -137 156 -207
210 -35 28 -86 71 -114 97 -27 26 -55 48 -61 48 -6 0 -19 10 -30 21 -10 12
-64 57 -119 100 -55 43 -113 90 -130 105 -16 14 -46 36 -65 49 -19 12 -48 34
-63 49 -15 14 -30 26 -32 26 -10 0 -115 84 -115 91 0 5 -5 9 -11 9 -6 0 -32
17 -58 38 -25 20 -53 42 -62 47 -59 36 -128 86 -149 106 -14 14 -36 30 -50 36
-14 6 -46 29 -72 52 -25 22 -50 41 -56 41 -5 0 -38 21 -73 48 -64 47 -108 78
-137 97 -9 6 -45 31 -80 58 -35 26 -67 47 -71 47 -4 0 -18 9 -31 20 -13 11
-29 20 -37 20 -7 0 -13 4 -13 9 0 5 -10 13 -22 17 -27 8 -72 38 -113 76 -16
15 -41 32 -55 37 -14 6 -77 45 -140 86 -63 41 -126 80 -139 85 -13 6 -40 24
-61 40 -20 16 -48 32 -63 35 -14 4 -31 13 -38 21 -6 8 -15 14 -20 14 -4 0 -28
14 -52 30 -25 17 -50 30 -56 30 -5 0 -18 8 -28 19 -10 10 -29 22 -43 26 -14 4
-47 22 -75 41 -27 18 -79 47 -115 64 -36 18 -88 48 -117 66 -28 19 -60 34 -71
34 -10 0 -27 9 -37 20 -10 11 -26 20 -36 20 -10 0 -20 4 -24 10 -3 5 -32 23
-65 39 -32 17 -67 34 -77 39 -10 6 -29 15 -43 21 -14 6 -32 15 -40 20 -45 26
-307 151 -317 151 -17 0 -105 42 -121 58 -7 6 -20 12 -29 12 -8 0 -27 6 -41
13 -39 20 -91 44 -252 114 -19 9 -48 22 -63 29 -16 8 -34 14 -40 14 -6 0 -29
8 -51 19 -54 25 -203 82 -291 111 -38 13 -79 29 -90 37 -11 7 -34 13 -51 13
-17 0 -37 6 -43 14 -7 8 -28 17 -47 21 -20 3 -50 12 -68 19 -57 24 -161 56
-181 56 -11 0 -29 7 -39 15 -11 8 -34 15 -51 15 -17 0 -48 9 -70 20 -22 11
-51 20 -65 20 -14 1 -36 7 -50 15 -14 8 -38 14 -55 15 -16 0 -42 6 -57 14 -14
8 -46 17 -70 21 -24 4 -55 14 -70 21 -15 8 -41 14 -57 14 -17 0 -48 6 -68 14
-21 8 -56 17 -78 21 -22 3 -58 12 -80 19 -22 8 -69 19 -105 25 -77 13 -150 27
-241 47 -37 8 -84 14 -105 14 -22 0 -71 9 -109 20 -38 11 -98 20 -132 20 -34
0 -91 7 -127 15 -35 8 -118 19 -183 25 -65 5 -132 14 -149 19 -17 5 -80 9
-140 10 -60 1 -149 7 -199 12 -117 14 -634 19 -750 8z m625 -959 c36 -5 112
-16 170 -24 112 -16 284 -51 301 -62 6 -3 34 -10 62 -14 29 -4 84 -19 122 -33
39 -14 87 -29 107 -32 21 -4 42 -13 49 -21 6 -8 23 -14 38 -14 14 0 39 -7 55
-15 15 -8 33 -15 38 -15 5 0 21 -9 35 -20 14 -11 35 -20 47 -20 11 0 32 -9 46
-20 14 -11 32 -20 41 -20 9 0 22 -7 29 -15 7 -8 16 -15 21 -15 12 0 51 -18 84
-40 17 -11 37 -23 45 -26 8 -4 23 -14 33 -22 20 -17 51 -36 86 -52 13 -6 41
-24 61 -40 21 -17 41 -30 44 -30 27 0 376 -284 427 -347 4 -4 56 -58 116 -120
60 -61 125 -135 145 -165 21 -29 53 -69 73 -88 19 -18 35 -42 35 -51 0 -10 4
-20 9 -23 16 -10 128 -181 179 -272 17 -32 37 -67 42 -76 6 -10 14 -26 20 -35
12 -22 57 -117 75 -158 7 -16 23 -51 34 -76 12 -25 21 -51 21 -58 0 -7 9 -24
20 -38 11 -14 20 -36 20 -48 0 -12 16 -68 35 -124 19 -56 35 -114 35 -129 0
-15 7 -36 15 -46 8 -11 15 -31 15 -45 0 -14 9 -66 21 -116 11 -49 25 -110 30
-135 11 -50 29 -267 34 -406 2 -51 6 -101 9 -111 4 -11 2 -52 -4 -91 -5 -39
-12 -122 -16 -184 -3 -62 -10 -140 -16 -173 -6 -33 -14 -89 -18 -125 -4 -36
-14 -85 -23 -109 -10 -24 -17 -58 -17 -75 -1 -17 -7 -42 -15 -56 -8 -14 -15
-36 -15 -50 0 -21 -47 -164 -105 -320 -17 -47 -70 -164 -86 -190 -5 -8 -14
-26 -20 -40 -82 -180 -185 -350 -313 -513 -33 -43 -76 -99 -94 -125 -65 -92
-380 -398 -484 -470 -25 -17 -48 -36 -50 -40 -3 -9 -285 -202 -294 -202 -3 0
-17 -9 -31 -20 -14 -11 -34 -20 -43 -20 -10 0 -23 -7 -30 -15 -7 -8 -19 -15
-28 -15 -8 0 -23 -6 -31 -14 -26 -23 -170 -96 -190 -96 -10 0 -24 -7 -31 -15
-7 -8 -19 -15 -27 -15 -8 0 -51 -16 -96 -35 -44 -19 -85 -35 -91 -35 -6 -1
-29 -9 -51 -20 -22 -11 -53 -19 -68 -20 -15 0 -40 -6 -55 -14 -15 -7 -52 -16
-82 -19 -30 -3 -68 -12 -85 -21 -16 -9 -47 -16 -68 -16 -21 0 -54 -7 -74 -15
-19 -8 -64 -15 -98 -15 -35 0 -81 -7 -106 -17 -65 -26 -585 -26 -708 0 -46 9
-102 17 -126 17 -23 0 -62 7 -85 15 -23 8 -58 15 -77 15 -19 0 -47 7 -63 15
-16 9 -51 18 -77 22 -27 3 -53 10 -59 14 -6 5 -35 13 -65 19 -30 5 -63 14 -74
19 -11 5 -54 19 -95 32 -41 13 -84 31 -96 41 -11 10 -34 18 -51 18 -17 0 -36
7 -43 15 -7 8 -18 15 -24 15 -6 1 -29 9 -51 20 -22 11 -45 19 -51 20 -6 0 -17
7 -24 15 -7 8 -20 15 -29 15 -9 0 -22 9 -29 20 -7 11 -21 20 -32 20 -10 0 -38
12 -62 28 -59 37 -77 48 -122 74 -64 37 -70 41 -126 83 -30 22 -56 43 -58 47
-2 5 -12 8 -22 8 -11 0 -23 6 -27 13 -4 7 -33 33 -63 57 -135 110 -337 305
-430 415 -36 43 -84 100 -107 127 -24 27 -52 66 -63 88 -11 22 -24 40 -29 40
-4 0 -20 22 -35 50 -15 27 -38 63 -52 79 -13 16 -24 33 -24 37 0 5 -19 36 -41
69 -32 48 -124 225 -153 295 -3 8 -10 22 -14 30 -24 42 -42 83 -42 93 0 7 -7
26 -16 42 -9 17 -20 46 -25 65 -4 19 -21 73 -38 120 -17 47 -31 98 -31 113 0
16 -5 38 -12 50 -6 12 -17 49 -24 82 -7 33 -18 78 -23 100 -16 63 -42 262 -46
345 -1 41 -6 136 -10 210 -9 156 8 475 30 565 8 33 14 76 15 96 0 20 7 53 15
73 8 20 18 58 21 86 3 28 12 63 20 78 7 15 14 37 14 49 0 12 8 46 18 75 11 29
27 78 37 108 10 30 26 73 35 95 10 22 27 65 37 95 10 30 23 62 28 70 5 8 33
62 62 120 91 182 162 303 238 406 16 22 39 53 50 68 89 125 166 214 320 370
125 126 222 213 275 248 14 9 45 35 70 57 25 23 48 41 52 41 11 0 132 90 136
101 2 5 9 9 16 9 15 0 83 34 105 53 9 7 56 33 104 57 49 25 91 48 93 52 3 5
13 8 22 8 9 0 28 9 42 20 14 11 32 20 41 20 9 0 22 6 28 14 6 7 26 16 44 19
18 3 62 19 98 36 36 17 75 31 85 31 11 0 36 9 57 20 20 11 47 20 60 20 13 0
32 7 43 15 10 8 34 15 52 15 18 0 46 7 63 15 16 9 61 20 99 24 39 5 76 13 83
19 7 5 39 10 72 11 33 1 87 8 120 16 33 8 74 16 90 18 64 8 533 6 595 -3z"/>
<path d="M8515 5965 c-33 -8 -77 -14 -97 -15 -20 0 -57 -9 -83 -20 -26 -11
-56 -20 -68 -20 -11 0 -55 -16 -96 -36 -110 -52 -134 -65 -156 -84 -11 -10
-33 -25 -50 -33 -16 -8 -46 -31 -64 -51 -19 -20 -41 -36 -48 -36 -13 0 -67
-54 -124 -124 -13 -15 -41 -47 -61 -71 -21 -23 -38 -47 -38 -52 0 -6 -7 -17
-16 -24 -9 -8 -34 -52 -56 -99 -21 -47 -45 -97 -53 -112 -8 -14 -15 -33 -15
-43 0 -9 -7 -29 -15 -44 -8 -16 -24 -75 -35 -132 -19 -90 -21 -127 -17 -284 3
-125 10 -198 21 -240 9 -33 24 -85 32 -115 9 -30 22 -68 30 -85 7 -16 18 -41
24 -55 5 -14 14 -32 19 -40 5 -8 26 -44 47 -80 37 -64 184 -244 235 -287 14
-12 43 -38 65 -57 21 -20 42 -36 46 -36 7 0 75 -40 163 -95 48 -31 92 -48 200
-81 28 -8 59 -19 70 -24 72 -31 487 -31 560 0 11 5 46 16 77 25 31 8 60 20 63
25 3 6 16 10 28 10 23 0 169 71 198 96 8 8 20 14 25 14 22 0 194 162 304 286
59 66 190 306 190 347 0 13 7 32 15 43 8 10 15 31 15 45 0 15 9 55 20 89 17
53 20 90 20 239 0 97 -5 194 -11 216 -6 22 -15 63 -20 90 -15 76 -74 239 -96
266 -7 8 -13 23 -13 31 0 9 -6 21 -14 27 -8 7 -24 30 -35 51 -60 116 -276 336
-381 388 -42 21 -71 39 -83 51 -6 6 -18 11 -26 11 -8 0 -22 6 -30 14 -25 23
-200 80 -320 105 -90 19 -278 22 -346 6z"/>
</g>
</svg>
