<?xml version="1.0" standalone="no"?>
<!DOCTYPE svg PUBLIC "-//W3C//DTD SVG 20010904//EN"
 "http://www.w3.org/TR/2001/REC-SVG-20010904/DTD/svg10.dtd">
<svg version="1.0" xmlns="http://www.w3.org/2000/svg"
 width="1890.000000pt" height="1890.000000pt" viewBox="0 0 1890.000000 1890.000000"
 preserveAspectRatio="xMidYMid meet">

<g transform="translate(0.000000,1890.000000) scale(0.100000,-0.100000)"
fill="#000000" stroke="none">
<path d="M10195 18163 c-399 -48 -746 -210 -1039 -484 -132 -124 -190 -220
-235 -395 -18 -69 -41 -303 -41 -419 0 -264 50 -682 134 -1130 32 -169 66
-576 66 -785 0 -251 -52 -473 -166 -710 -52 -109 -192 -327 -358 -560 -131
-183 -359 -528 -496 -750 -505 -816 -947 -1458 -1237 -1802 -41 -49 -80 -88
-86 -89 -7 -1 -1228 0 -2715 1 -2102 1 -2714 -1 -2755 -10 -216 -51 -431 -184
-634 -391 -148 -152 -242 -288 -301 -439 -53 -137 -56 -172 -72 -901 -56
-2476 -52 -4498 11 -6271 8 -221 14 -302 28 -352 54 -196 248 -402 488 -520
183 -90 316 -133 478 -156 58 -8 776 -10 2595 -8 l2515 3 70 24 c269 90 477
284 550 513 13 42 27 99 31 127 7 54 16 60 51 36 98 -68 359 -168 503 -191
129 -21 7471 -21 7640 0 296 37 538 110 791 237 622 312 969 868 969 1554 0
117 -21 337 -40 419 -14 62 -12 102 7 117 27 23 158 191 206 265 252 389 396
835 428 1320 10 152 9 202 -4 334 -9 85 -24 194 -33 242 l-17 87 24 29 c190
231 250 322 364 552 108 216 182 445 226 700 18 100 22 167 23 330 1 243 -20
384 -86 572 l-19 58 92 102 c172 192 257 314 355 510 312 620 194 1314 -303
1789 -264 252 -585 402 -963 449 -57 7 -802 10 -2257 10 -1972 0 -2173 1
-2173 16 0 8 27 124 60 257 52 207 115 481 150 647 40 190 80 463 106 725 25
245 25 935 0 1155 -32 285 -77 518 -148 770 -45 159 -127 393 -173 495 -172
380 -313 615 -534 895 -91 115 -315 346 -431 444 -371 316 -798 516 -1216 571
-103 13 -348 18 -429 8z m462 -612 c342 -78 649 -258 949 -556 194 -193 350
-399 492 -650 70 -124 188 -376 212 -455 5 -14 22 -63 39 -110 18 -47 39 -110
47 -140 74 -267 113 -462 141 -700 22 -192 25 -827 5 -1035 -15 -147 -57 -465
-72 -540 -6 -27 -17 -86 -26 -130 -28 -150 -85 -389 -196 -835 -60 -245 -112
-470 -115 -500 -10 -108 60 -227 164 -280 l48 -25 2440 -5 2440 -5 84 -24
c241 -67 435 -189 571 -358 317 -393 272 -883 -124 -1335 -41 -48 -81 -90 -88
-95 -7 -4 -807 -10 -1778 -13 l-1765 -5 -46 -27 c-55 -33 -113 -94 -135 -145
-27 -61 -24 -177 5 -237 32 -64 82 -113 150 -145 l56 -26 1664 -5 1665 -5 24
-60 c48 -121 65 -226 66 -410 0 -146 -4 -188 -27 -300 -40 -192 -80 -311 -160
-473 -80 -162 -170 -300 -259 -397 l-50 -55 -1731 -2 -1732 -3 -55 -28 c-70
-36 -105 -70 -138 -132 -23 -43 -27 -62 -27 -135 0 -68 5 -93 22 -126 36 -67
70 -101 135 -133 l61 -31 1667 0 c1494 0 1669 -2 1680 -15 8 -9 20 -78 28
-158 45 -436 -101 -969 -368 -1342 -32 -44 -69 -92 -83 -108 l-26 -27 -1739 0
c-1910 0 -1792 4 -1881 -60 -88 -64 -135 -190 -112 -295 23 -102 112 -198 209
-225 25 -6 599 -10 1699 -10 1013 0 1664 -4 1668 -9 3 -5 12 -60 20 -122 75
-567 -143 -996 -631 -1242 -176 -89 -400 -155 -604 -177 -77 -8 -1087 -10
-3800 -8 -3644 3 -3696 3 -3750 23 -160 57 -357 178 -483 296 l-77 71 0 3499
0 3499 123 138 c358 401 741 944 1337 1897 262 418 349 551 570 865 317 451
415 627 510 920 87 269 111 506 92 882 -13 239 -43 550 -62 648 -77 385 -130
814 -130 1050 0 116 22 286 41 322 8 15 43 52 79 83 168 147 349 238 566 285
120 27 365 22 501 -9z m-4444 -7108 l227 -6 0 -3864 0 -3863 -37 -41 c-20 -22
-58 -51 -85 -65 l-47 -24 -2459 0 c-2428 0 -2460 0 -2538 20 -135 34 -236 80
-327 149 -78 59 -77 54 -87 319 -46 1232 -63 3227 -40 4627 14 865 30 1608 41
1959 9 298 10 310 34 358 78 154 249 325 410 407 l60 31 2311 0 c1271 0 2413
-3 2537 -7z"/>
</g>
</svg>
